<?xml version="1.0" encoding="UTF-8"?>
<svg width="312.5" height="312.5" viewBox="0 0 343.0 344.0" xmlns="http://www.w3.org/2000/svg">
 <path d="m236.75 63.199c-6.715-19.696-31.984-11.602-47-14.263-12.424-2.2017-23.603-11.376-36-14.582-23.434-6.0605-57.223 5.4183-70.452 25.845-13.478 20.812-14.844 50.507-9.3117 74 2.0342 8.639 6.7552 16.355 8.8658 25 3.9019 15.982 5.472 36.559 4.6242 53-0.7865 15.251-19.28 39.659-10.242 53.999 5.3037 8.416 16.903 12.754 25.516 16.781 23.362 10.924 48.41 14.545 73.833 14.535 9.455-4e-3 27.251-3.0151 34.85-9.3091 3.965-3.283 3.032-10.417 3.603-15.006 1.511-12.143 1.58-27.242 7.804-38 15.505-26.801 35.129-51.284 52.371-77 7.84-11.693 18.696-25.011 22.007-39 3.447-14.569 2.102-37.564-8.847-48.661-12.873-13.046-33.154-12.564-49.297-7.7821m-59.324-11.557c-19.493 6.0633-32.968 35.754-33 55-0.23229 6.1807-2.402 17.47 4 21-2.798-22.141 1.582-55.264 22.171-68.854 14.187-9.3652 46.429-10.914 58.439 2.9584 7.452 8.6085 7.508 22.158 6.206 32.896-2.125 17.512-16.956 29.023-23.816 44 12.513-3.522 26.872-31.41 27.529-44 0.661-12.656-5.363-25.809 10.471-30.072 31.66-8.5257 42.863 20.547 41.632 45.638-1.3642 9.3234-6.5772 23.325-11.686 31.434-11.444 18.162-22.682 37.871-36.897 54-4.534 5.145-18.036 27.507-26.43 17.386-2.872-3.463 0.852-8.318 2.69-11.386 6.342-10.582 13.546-20.242 19.691-31-12.286 6.043-15.006 26.283-28 33.991-6.808 4.038-20.338-1.952-21.682-10.006-1.374-8.234 3.678-19.123 7.682-25.985-8.977 6.627-6.709 19.236-14.39 25.257-4.025 3.155-11.365 0.79459-15.716-0.28841-4.678-1.163-11.902-1.6996-15.291-5.4816-2.518-2.811-1.597-8.019-1.603-11.487-0.013-7.793-1.014-15.493-3-23 0 0 2.242 25.247-2.858 31.682-4.833 6.098-24.599 4.1942-26.114-2.701l-2.028-22.981c-2.631 7.219-0.346 14.994-2.97 21.981-1.583 4.217-10.603 10.135-13.427 3.856-2.552-5.675-1.1143-15.59-1.7076-21.837-0.8278-8.716-3.6894-18.472-5.8958-27 0 0 2.8469 26.454 2.9961 39 0.0649 5.456-1.5756 17.631-5.3279 12.009-4.157-10.795-2.8597-17.268-5.5663-28.354-2.0308-8.318-6.5003-18.399-8.6235-26.656-5.566-21.646-3.3292-47.376 7.8596-67 14.413-25.279 53.263-35.24 78.662-23.255 5.282 2.4926 12.692 4.2039 16 9.2546m-63 40 0.77871 1.3278c1.181-14.837 10.622-34.578 26.221-38.328-15.386-6.3959-32.121 24.622-27 37m146-11c3.312 8.0748 6.5485 15.497 4.8605 24.493-0.63632 7.172-5.2565 15.43-6.8605 22.507 10.493-8.7257 15.428-38.027 2-47m-51 198c-37.376-19.666-91.37-30.014-133-19 0.713-15.602 10.674-29.368 11.907-45 0.4172-5.292-1.3439-15.041 2.6876-19.298 6.1785-6.524 21.26-4.795 29.406-4.698 26.831 0.319 56.364 5.324 80 18.572 6.013 3.371 15.539 6.433 19.381 12.467 3.42 5.371-3.282 11.917-5.022 16.957-4.008 11.609-5.351 27.705-5.359 40m-8.6346 1.2338c4.8439 3.0685 7.8961 5.5407 3.6759 8.0974-24.692 11.713-53.907 5.8148-79.041-3.1512-6.474-2.31-25.122-6.95-24.454-16.137 0.7057-9.696 16.772-8.1495 22.913-8.1495 26.73 1.1065 52.526 6.1299 76.906 19.34z"/>
</svg>
