<svg id="Ebene_1" data-name="Ebene 1" xmlns="http://www.w3.org/2000/svg" viewBox="0 0 577.12 557.76"><defs><style>.cls-1{fill:#fff;}</style></defs><path id="gabel" d="M376.66,290l-4.2.1,1.61,74.83-8-.09-1.48-74.74h-4.8v75.24h-7.14l-.69-75.24h-4.86l-1.38,75.24-7.69,0,1.7-75.26h-4.18l-8.85,63.82s-.23,2.39-.22,3.33c.09,10.9,4.14,17.27,10.29,24,22.64,24.87,7.44,53.52,7.44,59.94V557.83a12.12,12.12,0,1,0,24.24,0,.29.29,0,0,0-.07-.22h.07V441.46c0-7.5-12.39-39.06,9.09-61.61a.42.42,0,0,1,.08-.13c3.92-4.2,7.94-9.6,8.56-20.4,0-.57,0-2,0-2Zm2.95.1" transform="translate(-128.37 -12.28)"/><path id="messer" d="M441.85,441.81c.07-7.16-.14-167.12-.14-167.12l-3.54.39s-31.46.52-32.68,139.45c-.26,29.85,12.79,32.61,12.48,37.3-.45,6.84.51,106.22.51,106.22l.07-.07c0,.07-.07.16-.07.3a11.69,11.69,0,0,0,23.37,0c.07-.07.07-.23,0-.23l.07-.07s0-79.51-.07-87.43Zm0,28.74" transform="translate(-128.37 -12.28)"/><path id="löffel" d="M499.18,284.11c-20,0-31.68,34-32.83,44.05-1.61,14.12-1.14,19.51-.42,27.89a35.63,35.63,0,0,0,12.95,24.5c23.44,26.46,7.43,53.53,7.43,59.95V557.08a12.13,12.13,0,0,0,24.25,0,.27.27,0,0,0-.07-.22h.07V440.71c0-7.51-13.5-38.53,9.08-61.62,0,0,.08,0,.08-.12a34.82,34.82,0,0,0,10.91-20.43c.12-.93,1.65-11-.82-28.91C528.4,319.46,518.85,284.11,499.18,284.11Z" transform="translate(-128.37 -12.28)"/><path class="cls-1" d="M488.32,376.46s-11.6-8.55-14.2-31.08c-1.31-11.44,1.63-22.55,2.22-24.9,2-8,4-10.26,4-10.26s.46-1,.86-.85a1.38,1.38,0,0,1,1,1.38c0,.86-2.37,9-2.89,12.61-2.31,16-.57,29,4.64,40.76,3.34,7.56,6,10.21,6,10.21a2.6,2.6,0,0,1,.73,2.34c-.27.84-.92,1-1.45.54S488.32,376.46,488.32,376.46Z" transform="translate(-128.37 -12.28)"/><g id="mütze"><path d="M689.77,84.6C667,46.71,622.31,20.33,567.5,20.33,528.37,20.33,458.67,42.2,429.93,64c-25.7-28.43-106.23-53-159.1-51.62-34.15.86-82.23,12.25-119.12,67.53-19,28.48-28.25,56.91-20.71,87.81C145.21,226,201,268,233,287.23V548.67A21.35,21.35,0,0,0,254.34,570h19.74V267.58a20.54,20.54,0,0,0-9.41-11c-.68-.46-74-43.72-87.18-98.37-4.57-19-.85-37.27,11.33-55.59,21.5-32.22,48-45.74,83-46.59C310,55.07,381.77,72.82,400.25,93.25c-29.11,29.41-49,56.87-50.51,59.36A21.42,21.42,0,0,0,357,181.94c10.11,6.15,19,4.47,29.36-7.13.84-.94,101.06-107.07,181.49-107.07,39.36,0,71.09,13.78,85.4,38.9,10.47,18.36,12.27,58.14-7,94.48-11.64,22-35.94,36.88-65.21,47V570h21.19a21.34,21.34,0,0,0,21.35-21.37V276.2c25.78-12.9,47.44-30.74,60.4-55,26.56-50.07,28.65-98.61,5.83-136.56Z" transform="translate(-128.37 -12.28)"/></g></svg>